<svg id="Profile_Icon" data-name="Profile Icon" xmlns="http://www.w3.org/2000/svg" width="38" height="38" viewBox="0 0 38 38">
  <defs>
    <style>
      .cls-1 {
        fill: #7d7d7d;
        stroke-width: 2px;
      }

      .cls-1, .cls-2 {
        stroke: #707070;
      }

      .cls-2, .cls-3 {
        fill: #fff;
      }

      .cls-4, .cls-6 {
        stroke: none;
      }

      .cls-5 {
        fill: none;
      }

      .cls-6 {
        fill: #707070;
      }
    </style>
  </defs>
  <g id="Ellipse_3" data-name="Ellipse 3" class="cls-1">
    <circle class="cls-4" cx="19" cy="19" r="19"/>
    <circle class="cls-5" cx="19" cy="19" r="18"/>
  </g>
  <g id="Ellipse_4" data-name="Ellipse 4" class="cls-2" transform="translate(12.444 6)">
    <circle class="cls-4" cx="7" cy="7" r="7"/>
    <circle class="cls-5" cx="7" cy="7" r="6.5"/>
  </g>
  <g id="Path_1" data-name="Path 1" class="cls-3" transform="translate(6.809 18.777)">
    <path class="cls-4" d="M 12.48879051208496 17.71487808227539 C 5.878150463104248 17.71487808227539 0.500000536441803 13.89221858978271 0.500000536441803 9.193538665771484 C 0.500000536441803 4.748068332672119 4.387570381164551 2.926888227462769 7.648830413818359 2.181908130645752 C 8.932480812072754 1.885748147964478 10.65097045898438 1.72277820110321 12.48879051208496 1.72277820110321 C 16.25447082519531 1.72277820110321 19.3436107635498 2.4274582862854 21.4222412109375 3.760648250579834 C 23.44962120056152 5.060958385467529 24.47758102416992 6.888848304748535 24.47758102416992 9.193538665771484 C 24.47758102416992 13.89221858978271 19.09943008422852 17.71487808227539 12.48879051208496 17.71487808227539 Z"/>
    <path class="cls-6" d="M 12.48879051208496 2.2227783203125 C 10.6876802444458 2.2227783203125 9.009110450744629 2.381208419799805 7.760169982910156 2.669357299804688 C 5.496789932250977 3.186378479003906 3.769451141357422 4.026847839355469 2.626131057739258 5.167407989501953 C 1.547109603881836 6.243827819824219 1 7.598418235778809 1 9.193538665771484 C 1 11.27353858947754 2.151880264282227 13.25110816955566 4.243440628051758 14.76195812225342 C 6.433210372924805 16.34374809265137 9.36146068572998 17.21487808227539 12.48879051208496 17.21487808227539 C 15.61612033843994 17.21487808227539 18.54437065124512 16.34374809265137 20.73414039611816 14.76195812225342 C 22.8257007598877 13.25110816955566 23.97758102416992 11.27353858947754 23.97758102416992 9.193538665771484 C 23.97758102416992 7.070208549499512 23.02701950073242 5.383917808532715 21.15229988098145 4.1815185546875 C 19.15438079833984 2.90009880065918 16.15859031677246 2.2227783203125 12.48879051208496 2.2227783203125 M 12.48879051208496 1.2227783203125 C 20.37944030761719 1.2227783203125 24.97758102416992 4.211188316345215 24.97758102416992 9.193538665771484 C 24.97758102416992 14.17588806152344 19.38615989685059 18.21487808227539 12.48879051208496 18.21487808227539 C 5.591421127319336 18.21487808227539 0 14.17588806152344 0 9.193538665771484 C 0 5.441827774047852 2.60719108581543 2.820697784423828 7.537481307983398 1.694467544555664 C 8.791681289672852 1.405097961425781 10.5398006439209 1.2227783203125 12.48879051208496 1.2227783203125 Z"/>
  </g>
</svg>
