<svg id="profico" xmlns="http://www.w3.org/2000/svg" width="37" height="37" viewBox="0 0 37 37">
  <defs>
    <style>
      .cls-1 {
        fill: #f6d5d5;
      }

      .cls-2, .cls-3 {
        fill: #fff;
      }

      .cls-2 {
        stroke: #aeaeae;
      }

      .cls-4, .cls-5, .cls-7 {
        stroke: none;
      }

      .cls-5 {
        fill: #707070;
      }

      .cls-6 {
        fill: none;
      }

      .cls-7 {
        fill: #aeaeae;
      }
    </style>
  </defs>
  <g id="Path_22" data-name="Path 22" class="cls-1">
    <path class="cls-4" d="M 18.5 36.5 C 13.69202041625977 36.5 9.171830177307129 34.62767028808594 5.772079944610596 31.22792053222656 C 2.372329950332642 27.82817077636719 0.5 23.30797958374023 0.5 18.5 C 0.5 13.69202041625977 2.372329950332642 9.171830177307129 5.772079944610596 5.772079944610596 C 9.171830177307129 2.372329950332642 13.69202041625977 0.5 18.5 0.5 C 23.30797958374023 0.5 27.82817077636719 2.372329950332642 31.22792053222656 5.772079944610596 C 34.62767028808594 9.171830177307129 36.5 13.69202041625977 36.5 18.5 C 36.5 23.30797958374023 34.62767028808594 27.82817077636719 31.22792053222656 31.22792053222656 C 27.82817077636719 34.62767028808594 23.30797958374023 36.5 18.5 36.5 Z"/>
    <path class="cls-5" d="M 18.5 1 C 13.82558059692383 1 9.430940628051758 2.820320129394531 6.125629425048828 6.125629425048828 C 2.820320129394531 9.430940628051758 1 13.82558059692383 1 18.5 C 1 23.17441940307617 2.820320129394531 27.56906127929688 6.125629425048828 30.87437057495117 C 9.430940628051758 34.17967987060547 13.82558059692383 36 18.5 36 C 23.17441940307617 36 27.56906127929688 34.17967987060547 30.87437057495117 30.87437057495117 C 34.17967987060547 27.56906127929688 36 23.17441940307617 36 18.5 C 36 13.82558059692383 34.17967987060547 9.430940628051758 30.87437057495117 6.125629425048828 C 27.56906127929688 2.820320129394531 23.17441940307617 1 18.5 1 M 18.5 0 C 28.71726989746094 0 37 8.282730102539063 37 18.5 C 37 28.71726989746094 28.71726989746094 37 18.5 37 C 8.282730102539063 37 0 28.71726989746094 0 18.5 C 0 8.282730102539063 8.282730102539063 0 18.5 0 Z"/>
  </g>
  <g id="Ellipse_33" data-name="Ellipse 33" class="cls-2" transform="translate(12 5)">
    <circle class="cls-4" cx="6" cy="6" r="6"/>
    <circle class="cls-6" cx="6" cy="6" r="5.5"/>
  </g>
  <g id="Path_18" data-name="Path 18" class="cls-3" transform="translate(7.069 17.055)">
    <path class="cls-4" d="M 11.5 17.19884490966797 C 8.610099792480469 17.19884490966797 5.649429798126221 17.07136344909668 3.571589946746826 16.14654350280762 C 1.476019978523254 15.21383476257324 0.5 13.56758403778076 0.5 10.96569442749023 C 0.5 5.194894313812256 5.434579849243164 0.5000043511390686 11.5 0.5000043511390686 C 17.56542015075684 0.5000043511390686 22.5 5.194894313812256 22.5 10.96569442749023 C 22.5 13.56758403778076 21.52397918701172 15.21383476257324 19.42841911315918 16.14654350280762 C 17.35057067871094 17.07136344909668 14.3899097442627 17.19884490966797 11.5 17.19884490966797 Z"/>
    <path class="cls-7" d="M 11.5 1.000003814697266 C 5.71027946472168 1.000003814697266 1 5.47059440612793 1 10.96569442749023 C 1 13.37863445281982 1.855810165405273 14.83558464050293 3.774900436401367 15.68974494934082 C 5.767440795898438 16.57659530639648 8.665280342102051 16.69884490966797 11.5 16.69884490966797 C 14.33471965789795 16.69884490966797 17.23257064819336 16.57659530639648 19.22509956359863 15.68974494934082 C 21.14418983459473 14.83558464050293 22 13.37863445281982 22 10.96569442749023 C 22 5.47059440612793 17.28972053527832 1.000003814697266 11.5 1.000003814697266 M 11.5 3.814697265625e-06 C 17.85128021240234 3.814697265625e-06 23 4.909514427185059 23 10.96569442749023 C 23 17.02188491821289 17.85128021240234 17.69884490966797 11.5 17.69884490966797 C 5.14872932434082 17.69884490966797 0 17.02188491821289 0 10.96569442749023 C 0 4.909514427185059 5.14872932434082 3.814697265625e-06 11.5 3.814697265625e-06 Z"/>
  </g>
</svg>
