<svg id="testi" xmlns="http://www.w3.org/2000/svg" width="214" height="214" viewBox="0 0 214 214">
  <defs>
    <style>
      .cls-1 {
        fill: #e6b9c4;
      }

      .cls-1, .cls-2 {
        stroke: #707070;
      }

      .cls-2, .cls-3 {
        fill: #fff;
      }

      .cls-4, .cls-6 {
        stroke: none;
      }

      .cls-5 {
        fill: none;
      }

      .cls-6 {
        fill: #707070;
      }
    </style>
  </defs>
  <g id="Ellipse_16" data-name="Ellipse 16" class="cls-1">
    <circle class="cls-4" cx="107" cy="107" r="107"/>
    <circle class="cls-5" cx="107" cy="107" r="106.5"/>
  </g>
  <g id="Ellipse_17" data-name="Ellipse 17" class="cls-2" transform="translate(66 24)">
    <circle class="cls-4" cx="41.5" cy="41.5" r="41.5"/>
    <circle class="cls-5" cx="41.5" cy="41.5" r="41"/>
  </g>
  <g id="Path_5" data-name="Path 5" class="cls-3" transform="translate(37 107)">
    <path class="cls-4" d="M 71.00000762939453 106.5000076293945 C 51.63072967529297 106.5000076293945 32.01554870605469 101.3579483032227 17.18398857116699 92.39231109619141 C 13.47898864746094 90.15264892578125 10.10870838165283 87.69100952148438 7.166748523712158 85.07576751708984 C 4.149988651275635 82.39402770996094 1.556168437004089 79.52578735351563 -0.5426715612411499 76.55075073242188 C -4.986811637878418 70.25128936767578 -7.240171432495117 63.49850845336914 -7.240171432495117 56.47998809814453 C -7.240171432495117 54.01010894775391 -6.953771591186523 51.72879028320313 -6.388951778411865 49.69937133789063 C -5.845691680908203 47.74748992919922 -5.026511669158936 45.96384811401367 -3.954151630401611 44.39794921875 C -1.911531567573547 41.41524887084961 1.054088473320007 39.12652969360352 5.112168312072754 37.40097045898438 C 8.774648666381836 35.8436279296875 13.28836822509766 34.76856994628906 18.91130828857422 34.11433029174805 C 23.64276885986328 33.56380844116211 29.13268852233887 33.30741119384766 36.18842697143555 33.30741119384766 C 41.49576950073242 33.30741119384766 46.97174835205078 33.44828796386719 52.76926803588867 33.59743118286133 C 58.72200775146484 33.75056838989258 64.87738800048828 33.90892791748047 71.00000762939453 33.90892791748047 C 77.15621185302734 33.90892791748047 83.28108978271484 33.74924850463867 89.20430755615234 33.59481048583984 C 94.87308502197266 33.4470100402832 100.2274703979492 33.30741119384766 105.3805694580078 33.30741119384766 C 112.2627105712891 33.30741119384766 117.6008071899414 33.56367111206055 122.179931640625 34.11384963989258 C 127.6114883422852 34.7664680480957 131.9625701904297 35.84053039550781 135.4818115234375 37.39741134643555 C 139.3713226318359 39.11811065673828 142.2109832763672 41.40488815307617 144.1630554199219 44.388427734375 C 145.1871948242188 45.95372772216797 145.9693145751953 47.73843002319336 146.4876861572266 49.69297027587891 C 147.0260009765625 51.72269058227539 147.2989501953125 54.00616836547852 147.2989501953125 56.47998809814453 C 147.2989501953125 63.51908874511719 145.1457061767578 70.27465057373047 140.8990478515625 76.55902862548828 C 138.8862915039063 79.53759002685547 136.3965911865234 82.40521240234375 133.4991302490234 85.08220672607422 C 130.6657409667969 87.70001220703125 127.4156265258789 90.16078948974609 123.8390502929688 92.39620971679688 C 120.312629699707 94.60028839111328 116.4425048828125 96.60196685791016 112.3361663818359 98.34571075439453 C 108.2483062744141 100.0815887451172 103.9002456665039 101.5729904174805 99.41278839111328 102.778450012207 C 94.89966583251953 103.9908065795898 90.21627044677734 104.9217529296875 85.49270629882813 105.5454330444336 C 80.69532775878906 106.1788482666016 75.81926727294922 106.5000076293945 71.00000762939453 106.5000076293945 Z"/>
    <path class="cls-6" d="M 36.18843078613281 33.80741119384766 C 29.1524658203125 33.80741119384766 23.680908203125 34.06275177001953 18.96908569335938 34.61096954345703 C 13.39430999755859 35.25961303710938 8.925674438476563 36.32273101806641 5.307830810546875 37.86109161376953 C 1.340164184570313 39.54821014404297 -1.55450439453125 41.77883148193359 -3.541610717773438 44.68047332763672 C -4.582855224609375 46.20091247558594 -5.378768920898438 47.93463134765625 -5.907257080078125 49.83342742919922 C -6.459930419921875 51.81920623779297 -6.74017333984375 54.05542755126953 -6.74017333984375 56.47998809814453 C -6.74017333984375 63.39327239990234 -4.517578125 70.049072265625 -0.1341094970703125 76.26251220703125 C 1.942672729492188 79.20629119873047 4.510787963867188 82.04574584960938 7.498947143554688 84.70207214355469 C 10.41815185546875 87.29708862304688 13.76371002197266 89.74049377441406 17.44266510009766 91.96440887451172 C 32.19841003417969 100.8842086791992 51.71930694580078 105.9999923706055 71.00000762939453 105.9999923706055 C 75.79747009277344 105.9999923706055 80.6514892578125 105.6802673339844 85.42724609375 105.0497131347656 C 90.12921142578125 104.4288940429688 94.79098510742188 103.5022735595703 99.28305053710938 102.2955474853516 C 103.7482070922852 101.0960845947266 108.0741500854492 99.6123046875 112.1407318115234 97.88546752929688 C 116.223030090332 96.15194702148438 120.0697708129883 94.16242980957031 123.5740509033203 91.97221374511719 C 127.1242065429688 89.75331115722656 130.3493347167969 87.31161499023438 133.1598358154297 84.71495056152344 C 136.029052734375 82.06402587890625 138.4935302734375 79.22578430175781 140.4847717285156 76.27906799316406 C 144.6745452880859 70.07887268066406 146.7989501953125 63.41748809814453 146.7989501953125 56.47998809814453 C 146.7989501953125 54.04940795898438 146.5316314697266 51.80905151367188 146.00439453125 49.82112884521484 C 145.499755859375 47.91837310791016 144.7394714355469 46.18263244628906 143.7446441650391 44.66214752197266 C 141.8470458984375 41.76184844970703 139.0780944824219 39.53507232666016 135.2795257568359 37.85460662841797 C 131.8062896728516 36.31806945800781 127.5018463134766 35.25682830810547 122.1202697753906 34.6102294921875 C 117.5613861083984 34.06246948242188 112.2422256469727 33.807373046875 105.3805694580078 33.80741119384766 C 100.2342681884766 33.80742645263672 94.88334655761719 33.94695281982422 89.21824645996094 34.09462738037109 C 83.29154968261719 34.24915313720703 77.16304779052734 34.40892791748047 71.00000762939453 34.40892791748047 C 64.8709716796875 34.40892791748047 58.71231079101563 34.25048828125 52.75640869140625 34.09726715087891 C 46.96221160888672 33.94821166992188 41.48934936523438 33.80741119384766 36.18843078613281 33.80741119384766 M 36.18843078613281 32.80741119384766 C 47.07100677490234 32.80741119384766 59.04774475097656 33.40892791748047 71.00000762939453 33.40892791748047 C 82.94986724853516 33.40892791748047 94.75041961669922 32.80747222900391 105.3805694580078 32.80741119384766 C 129.6321258544922 32.80727386474609 147.7989501953125 35.93722534179688 147.7989501953125 56.47998809814453 C 147.7989501953125 86.02720642089844 110.2122039794922 106.9999923706055 71.00000762939453 106.9999923706055 C 31.78778839111328 106.9999923706055 -7.74017333984375 86.02720642089844 -7.74017333984375 56.47998809814453 C -7.74017333984375 35.93903350830078 11.36813354492188 32.80741119384766 36.18843078613281 32.80741119384766 Z"/>
  </g>
</svg>
